<mxfile host="app.diagrams.net" modified="2023-10-02T18:14:52.661Z" agent="Mozilla/5.0 (X11; Linux x86_64) AppleWebKit/537.36 (KHTML, like Gecko) Chrome/117.0.0.0 Safari/537.36" etag="0TzlhzNq5LgMA6ffg7wX" version="22.0.0" type="github">
  <diagram name="Страница — 1" id="HEkqbumlcw84zHXEJl8H">
    <mxGraphModel dx="2487" dy="1307" grid="0" gridSize="10" guides="1" tooltips="1" connect="1" arrows="1" fold="1" page="0" pageScale="1" pageWidth="827" pageHeight="1169" math="0" shadow="0">
      <root>
        <mxCell id="0" />
        <mxCell id="1" parent="0" />
        <mxCell id="XJhYYw2cQEGLfJjtBbyS-1" value="Прийом співробітника на роботу" style="swimlane;horizontal=0;whiteSpace=wrap;html=1;" vertex="1" parent="1">
          <mxGeometry x="-520" y="-259" width="2660" height="986" as="geometry" />
        </mxCell>
        <mxCell id="XJhYYw2cQEGLfJjtBbyS-5" value="Компанія" style="swimlane;horizontal=0;whiteSpace=wrap;html=1;" vertex="1" parent="XJhYYw2cQEGLfJjtBbyS-1">
          <mxGeometry x="24" width="2480" height="659" as="geometry" />
        </mxCell>
        <mxCell id="XJhYYw2cQEGLfJjtBbyS-2" value="Відділ з відкритою посадою" style="swimlane;horizontal=0;whiteSpace=wrap;html=1;" vertex="1" parent="XJhYYw2cQEGLfJjtBbyS-5">
          <mxGeometry x="24" width="756" height="274" as="geometry" />
        </mxCell>
        <mxCell id="XJhYYw2cQEGLfJjtBbyS-3" value="Відділ кадрів (HR)" style="swimlane;horizontal=0;whiteSpace=wrap;html=1;" vertex="1" parent="XJhYYw2cQEGLfJjtBbyS-5">
          <mxGeometry x="23" y="275" width="2118" height="385" as="geometry" />
        </mxCell>
        <mxCell id="XJhYYw2cQEGLfJjtBbyS-12" value="Розглянути заяву та резюме" style="rounded=1;whiteSpace=wrap;html=1;" vertex="1" parent="XJhYYw2cQEGLfJjtBbyS-3">
          <mxGeometry x="223" y="162.5" width="120" height="60" as="geometry" />
        </mxCell>
        <mxCell id="XJhYYw2cQEGLfJjtBbyS-32" style="edgeStyle=orthogonalEdgeStyle;rounded=0;orthogonalLoop=1;jettySize=auto;html=1;exitX=0.5;exitY=1;exitDx=0;exitDy=0;exitPerimeter=0;entryX=0;entryY=0.5;entryDx=0;entryDy=0;" edge="1" parent="XJhYYw2cQEGLfJjtBbyS-3" source="XJhYYw2cQEGLfJjtBbyS-26" target="XJhYYw2cQEGLfJjtBbyS-31">
          <mxGeometry relative="1" as="geometry" />
        </mxCell>
        <mxCell id="XJhYYw2cQEGLfJjtBbyS-33" value="&lt;font style=&quot;font-size: 16px;&quot;&gt;Ні&lt;/font&gt;" style="edgeLabel;html=1;align=center;verticalAlign=middle;resizable=0;points=[];" vertex="1" connectable="0" parent="XJhYYw2cQEGLfJjtBbyS-32">
          <mxGeometry x="-0.0889" y="-2" relative="1" as="geometry">
            <mxPoint y="-1" as="offset" />
          </mxGeometry>
        </mxCell>
        <mxCell id="XJhYYw2cQEGLfJjtBbyS-37" style="edgeStyle=orthogonalEdgeStyle;rounded=0;orthogonalLoop=1;jettySize=auto;html=1;exitX=0.5;exitY=0;exitDx=0;exitDy=0;exitPerimeter=0;entryX=0;entryY=0.5;entryDx=0;entryDy=0;" edge="1" parent="XJhYYw2cQEGLfJjtBbyS-3" source="XJhYYw2cQEGLfJjtBbyS-26" target="XJhYYw2cQEGLfJjtBbyS-36">
          <mxGeometry relative="1" as="geometry" />
        </mxCell>
        <mxCell id="XJhYYw2cQEGLfJjtBbyS-38" value="&lt;font style=&quot;font-size: 16px;&quot;&gt;Так&lt;/font&gt;" style="edgeLabel;html=1;align=center;verticalAlign=middle;resizable=0;points=[];" vertex="1" connectable="0" parent="XJhYYw2cQEGLfJjtBbyS-37">
          <mxGeometry x="-0.315" y="3" relative="1" as="geometry">
            <mxPoint as="offset" />
          </mxGeometry>
        </mxCell>
        <mxCell id="XJhYYw2cQEGLfJjtBbyS-26" value="" style="points=[[0.25,0.25,0],[0.5,0,0],[0.75,0.25,0],[1,0.5,0],[0.75,0.75,0],[0.5,1,0],[0.25,0.75,0],[0,0.5,0]];shape=mxgraph.bpmn.gateway2;html=1;verticalLabelPosition=bottom;labelBackgroundColor=#ffffff;verticalAlign=top;align=center;perimeter=rhombusPerimeter;outlineConnect=0;outline=none;symbol=none;gwType=exclusive;" vertex="1" parent="XJhYYw2cQEGLfJjtBbyS-3">
          <mxGeometry x="386" y="167.5" width="50" height="50" as="geometry" />
        </mxCell>
        <mxCell id="XJhYYw2cQEGLfJjtBbyS-27" style="edgeStyle=orthogonalEdgeStyle;rounded=0;orthogonalLoop=1;jettySize=auto;html=1;exitX=1;exitY=0.5;exitDx=0;exitDy=0;entryX=0;entryY=0.5;entryDx=0;entryDy=0;entryPerimeter=0;" edge="1" parent="XJhYYw2cQEGLfJjtBbyS-3" source="XJhYYw2cQEGLfJjtBbyS-12" target="XJhYYw2cQEGLfJjtBbyS-26">
          <mxGeometry relative="1" as="geometry" />
        </mxCell>
        <mxCell id="XJhYYw2cQEGLfJjtBbyS-30" value="Чи підходить кандидат компанії,&lt;br&gt;&amp;nbsp;на основі резюме?" style="text;html=1;align=center;verticalAlign=middle;resizable=0;points=[];autosize=1;strokeColor=none;fillColor=none;" vertex="1" parent="XJhYYw2cQEGLfJjtBbyS-3">
          <mxGeometry x="436" y="172" width="197" height="41" as="geometry" />
        </mxCell>
        <mxCell id="XJhYYw2cQEGLfJjtBbyS-40" style="edgeStyle=orthogonalEdgeStyle;rounded=0;orthogonalLoop=1;jettySize=auto;html=1;exitX=1;exitY=0.5;exitDx=0;exitDy=0;" edge="1" parent="XJhYYw2cQEGLfJjtBbyS-3" source="XJhYYw2cQEGLfJjtBbyS-31" target="XJhYYw2cQEGLfJjtBbyS-39">
          <mxGeometry relative="1" as="geometry" />
        </mxCell>
        <mxCell id="XJhYYw2cQEGLfJjtBbyS-31" value="Відхилити заяву" style="rounded=1;whiteSpace=wrap;html=1;" vertex="1" parent="XJhYYw2cQEGLfJjtBbyS-3">
          <mxGeometry x="456" y="286" width="120" height="60" as="geometry" />
        </mxCell>
        <mxCell id="XJhYYw2cQEGLfJjtBbyS-36" value="Назначити співбесіду" style="rounded=1;whiteSpace=wrap;html=1;" vertex="1" parent="XJhYYw2cQEGLfJjtBbyS-3">
          <mxGeometry x="456" y="35" width="120" height="60" as="geometry" />
        </mxCell>
        <mxCell id="XJhYYw2cQEGLfJjtBbyS-39" value="" style="points=[[0.145,0.145,0],[0.5,0,0],[0.855,0.145,0],[1,0.5,0],[0.855,0.855,0],[0.5,1,0],[0.145,0.855,0],[0,0.5,0]];shape=mxgraph.bpmn.event;html=1;verticalLabelPosition=bottom;labelBackgroundColor=#ffffff;verticalAlign=top;align=center;perimeter=ellipsePerimeter;outlineConnect=0;aspect=fixed;outline=end;symbol=terminate2;" vertex="1" parent="XJhYYw2cQEGLfJjtBbyS-3">
          <mxGeometry x="624" y="291" width="50" height="50" as="geometry" />
        </mxCell>
        <mxCell id="XJhYYw2cQEGLfJjtBbyS-42" style="edgeStyle=orthogonalEdgeStyle;rounded=0;orthogonalLoop=1;jettySize=auto;html=1;exitX=1;exitY=0.5;exitDx=0;exitDy=0;exitPerimeter=0;entryX=0;entryY=0.5;entryDx=0;entryDy=0;" edge="1" parent="XJhYYw2cQEGLfJjtBbyS-3" source="XJhYYw2cQEGLfJjtBbyS-41" target="XJhYYw2cQEGLfJjtBbyS-12">
          <mxGeometry relative="1" as="geometry" />
        </mxCell>
        <mxCell id="XJhYYw2cQEGLfJjtBbyS-41" value="" style="points=[[0.145,0.145,0],[0.5,0,0],[0.855,0.145,0],[1,0.5,0],[0.855,0.855,0],[0.5,1,0],[0.145,0.855,0],[0,0.5,0]];shape=mxgraph.bpmn.event;html=1;verticalLabelPosition=bottom;labelBackgroundColor=#ffffff;verticalAlign=top;align=center;perimeter=ellipsePerimeter;outlineConnect=0;aspect=fixed;outline=standard;symbol=general;" vertex="1" parent="XJhYYw2cQEGLfJjtBbyS-3">
          <mxGeometry x="62" y="167.5" width="50" height="50" as="geometry" />
        </mxCell>
        <mxCell id="XJhYYw2cQEGLfJjtBbyS-4" value="Кандидат на посаду" style="swimlane;horizontal=0;whiteSpace=wrap;html=1;" vertex="1" parent="1">
          <mxGeometry x="-496" y="400" width="2141" height="327" as="geometry" />
        </mxCell>
        <mxCell id="XJhYYw2cQEGLfJjtBbyS-10" style="edgeStyle=orthogonalEdgeStyle;rounded=0;orthogonalLoop=1;jettySize=auto;html=1;exitX=1;exitY=0.5;exitDx=0;exitDy=0;entryX=0;entryY=0.5;entryDx=0;entryDy=0;" edge="1" parent="XJhYYw2cQEGLfJjtBbyS-4" source="XJhYYw2cQEGLfJjtBbyS-8" target="XJhYYw2cQEGLfJjtBbyS-9">
          <mxGeometry relative="1" as="geometry" />
        </mxCell>
        <mxCell id="XJhYYw2cQEGLfJjtBbyS-8" value="Створити резюме" style="rounded=1;whiteSpace=wrap;html=1;" vertex="1" parent="XJhYYw2cQEGLfJjtBbyS-4">
          <mxGeometry x="143" y="107.5" width="120" height="60" as="geometry" />
        </mxCell>
        <mxCell id="XJhYYw2cQEGLfJjtBbyS-44" style="edgeStyle=orthogonalEdgeStyle;rounded=0;orthogonalLoop=1;jettySize=auto;html=1;exitX=0.25;exitY=0;exitDx=0;exitDy=0;entryX=0;entryY=0;entryDx=40;entryDy=37.5;entryPerimeter=0;dashed=1;" edge="1" parent="XJhYYw2cQEGLfJjtBbyS-4" source="XJhYYw2cQEGLfJjtBbyS-9" target="XJhYYw2cQEGLfJjtBbyS-18">
          <mxGeometry relative="1" as="geometry">
            <mxPoint x="330.17647058823513" y="65.94117647058829" as="targetPoint" />
          </mxGeometry>
        </mxCell>
        <mxCell id="XJhYYw2cQEGLfJjtBbyS-47" style="edgeStyle=orthogonalEdgeStyle;rounded=0;orthogonalLoop=1;jettySize=auto;html=1;exitX=1;exitY=0.5;exitDx=0;exitDy=0;" edge="1" parent="XJhYYw2cQEGLfJjtBbyS-4" source="XJhYYw2cQEGLfJjtBbyS-9" target="XJhYYw2cQEGLfJjtBbyS-46">
          <mxGeometry relative="1" as="geometry" />
        </mxCell>
        <mxCell id="XJhYYw2cQEGLfJjtBbyS-9" value="Подати заяву на вакансію" style="rounded=1;whiteSpace=wrap;html=1;" vertex="1" parent="XJhYYw2cQEGLfJjtBbyS-4">
          <mxGeometry x="368" y="107.5" width="120" height="60" as="geometry" />
        </mxCell>
        <mxCell id="XJhYYw2cQEGLfJjtBbyS-18" value="" style="shape=mxgraph.bpmn.data;labelPosition=center;verticalLabelPosition=bottom;align=center;verticalAlign=top;size=15;html=1;" vertex="1" parent="XJhYYw2cQEGLfJjtBbyS-4">
          <mxGeometry x="247" y="16" width="40" height="60" as="geometry" />
        </mxCell>
        <mxCell id="XJhYYw2cQEGLfJjtBbyS-21" value="&lt;font style=&quot;font-size: 10px;&quot;&gt;Резюме&lt;/font&gt;" style="text;html=1;align=center;verticalAlign=middle;resizable=0;points=[];autosize=1;strokeColor=none;fillColor=none;" vertex="1" parent="XJhYYw2cQEGLfJjtBbyS-4">
          <mxGeometry x="240" y="41" width="54" height="26" as="geometry" />
        </mxCell>
        <mxCell id="XJhYYw2cQEGLfJjtBbyS-45" style="edgeStyle=orthogonalEdgeStyle;rounded=0;orthogonalLoop=1;jettySize=auto;html=1;exitX=1;exitY=0.5;exitDx=0;exitDy=0;exitPerimeter=0;entryX=0;entryY=0.5;entryDx=0;entryDy=0;" edge="1" parent="XJhYYw2cQEGLfJjtBbyS-4" source="XJhYYw2cQEGLfJjtBbyS-43" target="XJhYYw2cQEGLfJjtBbyS-8">
          <mxGeometry relative="1" as="geometry" />
        </mxCell>
        <mxCell id="XJhYYw2cQEGLfJjtBbyS-43" value="" style="points=[[0.145,0.145,0],[0.5,0,0],[0.855,0.145,0],[1,0.5,0],[0.855,0.855,0],[0.5,1,0],[0.145,0.855,0],[0,0.5,0]];shape=mxgraph.bpmn.event;html=1;verticalLabelPosition=bottom;labelBackgroundColor=#ffffff;verticalAlign=top;align=center;perimeter=ellipsePerimeter;outlineConnect=0;aspect=fixed;outline=standard;symbol=general;" vertex="1" parent="XJhYYw2cQEGLfJjtBbyS-4">
          <mxGeometry x="36" y="112.5" width="50" height="50" as="geometry" />
        </mxCell>
        <mxCell id="XJhYYw2cQEGLfJjtBbyS-46" value="" style="points=[[0.25,0.25,0],[0.5,0,0],[0.75,0.25,0],[1,0.5,0],[0.75,0.75,0],[0.5,1,0],[0.25,0.75,0],[0,0.5,0]];shape=mxgraph.bpmn.gateway2;html=1;verticalLabelPosition=bottom;labelBackgroundColor=#ffffff;verticalAlign=top;align=center;perimeter=rhombusPerimeter;outlineConnect=0;outline=none;symbol=none;gwType=exclusive;" vertex="1" parent="XJhYYw2cQEGLfJjtBbyS-4">
          <mxGeometry x="543" y="112.5" width="50" height="50" as="geometry" />
        </mxCell>
        <mxCell id="XJhYYw2cQEGLfJjtBbyS-48" value="Заяву відхилено?" style="text;html=1;align=center;verticalAlign=middle;resizable=0;points=[];autosize=1;strokeColor=none;fillColor=none;" vertex="1" parent="XJhYYw2cQEGLfJjtBbyS-4">
          <mxGeometry x="593" y="124.5" width="116" height="26" as="geometry" />
        </mxCell>
        <mxCell id="XJhYYw2cQEGLfJjtBbyS-49" value="" style="points=[[0.145,0.145,0],[0.5,0,0],[0.855,0.145,0],[1,0.5,0],[0.855,0.855,0],[0.5,1,0],[0.145,0.855,0],[0,0.5,0]];shape=mxgraph.bpmn.event;html=1;verticalLabelPosition=bottom;labelBackgroundColor=#ffffff;verticalAlign=top;align=center;perimeter=ellipsePerimeter;outlineConnect=0;aspect=fixed;outline=end;symbol=terminate2;" vertex="1" parent="XJhYYw2cQEGLfJjtBbyS-4">
          <mxGeometry x="648" y="212" width="50" height="50" as="geometry" />
        </mxCell>
        <mxCell id="XJhYYw2cQEGLfJjtBbyS-50" style="edgeStyle=orthogonalEdgeStyle;rounded=0;orthogonalLoop=1;jettySize=auto;html=1;exitX=0.5;exitY=1;exitDx=0;exitDy=0;exitPerimeter=0;entryX=0;entryY=0.5;entryDx=0;entryDy=0;entryPerimeter=0;" edge="1" parent="XJhYYw2cQEGLfJjtBbyS-4" source="XJhYYw2cQEGLfJjtBbyS-46" target="XJhYYw2cQEGLfJjtBbyS-49">
          <mxGeometry relative="1" as="geometry" />
        </mxCell>
        <mxCell id="XJhYYw2cQEGLfJjtBbyS-51" value="&lt;font style=&quot;font-size: 16px;&quot;&gt;Так&lt;/font&gt;" style="edgeLabel;html=1;align=center;verticalAlign=middle;resizable=0;points=[];" vertex="1" connectable="0" parent="XJhYYw2cQEGLfJjtBbyS-50">
          <mxGeometry x="-0.4679" y="-3" relative="1" as="geometry">
            <mxPoint as="offset" />
          </mxGeometry>
        </mxCell>
        <mxCell id="XJhYYw2cQEGLfJjtBbyS-24" style="edgeStyle=orthogonalEdgeStyle;rounded=0;orthogonalLoop=1;jettySize=auto;html=1;exitX=0;exitY=0;exitDx=12.5;exitDy=0;exitPerimeter=0;entryX=0.112;entryY=1.013;entryDx=0;entryDy=0;entryPerimeter=0;dashed=1;" edge="1" parent="1" source="XJhYYw2cQEGLfJjtBbyS-18" target="XJhYYw2cQEGLfJjtBbyS-12">
          <mxGeometry relative="1" as="geometry" />
        </mxCell>
        <mxCell id="XJhYYw2cQEGLfJjtBbyS-29" style="edgeStyle=orthogonalEdgeStyle;rounded=0;orthogonalLoop=1;jettySize=auto;html=1;exitX=0.5;exitY=0;exitDx=0;exitDy=0;entryX=0.5;entryY=1;entryDx=0;entryDy=0;" edge="1" parent="1" source="XJhYYw2cQEGLfJjtBbyS-9" target="XJhYYw2cQEGLfJjtBbyS-12">
          <mxGeometry relative="1" as="geometry" />
        </mxCell>
        <mxCell id="XJhYYw2cQEGLfJjtBbyS-35" style="edgeStyle=orthogonalEdgeStyle;rounded=0;orthogonalLoop=1;jettySize=auto;html=1;exitX=0.25;exitY=1;exitDx=0;exitDy=0;entryX=0.75;entryY=0;entryDx=0;entryDy=0;" edge="1" parent="1" source="XJhYYw2cQEGLfJjtBbyS-31" target="XJhYYw2cQEGLfJjtBbyS-9">
          <mxGeometry relative="1" as="geometry" />
        </mxCell>
      </root>
    </mxGraphModel>
  </diagram>
</mxfile>
